<svg id="Layer_1" data-name="Layer 1" xmlns="http://www.w3.org/2000/svg" viewBox="0 0 500 500"><defs><style>.cls-1{fill:#75d2fc;}.cls-2{opacity:0.37;}.cls-3{fill:#ed1c24;}.cls-4{fill:#fcd430;}.cls-5{fill:none;stroke:#00243d;stroke-linecap:round;stroke-linejoin:round;stroke-width:3px;}</style></defs><path class="cls-1" d="M170.3,210.91h30.17a73.17,73.17,0,0,1,9.13.25l-2.39-.32a15.72,15.72,0,0,1,3.75,1l-2.15-.91a11.76,11.76,0,0,1,2,1.17V196.57a59.44,59.44,0,0,1-11.1,6.13l2.15-.91c-7.62,3.19-15.67,5.1-23.68,7a154,154,0,0,0-25.52,8.06l-1.82,1.41-1.41,1.82a9,9,0,0,0-1.07,5.74,8.66,8.66,0,0,0,1.77,4.26,8.27,8.27,0,0,0,4.68,3.22l53.12,8.14,7.62,1.17a29.82,29.82,0,0,1,6.24,1.21l-2.15-.91a6.52,6.52,0,0,1,1.09.62l-1.82-1.4a2.89,2.89,0,0,1,.44.42l-1.41-1.83a3.51,3.51,0,0,1,.47.79L226.18,228l-56.72,5.27a9.67,9.67,0,0,0-6.36,2.64,9,9,0,0,0,0,12.73c1.66,1.52,4,2.85,6.36,2.63L226.18,246c3.25-.3,6.06-1.53,7.77-4.46s1.38-6.07,0-9.08c-1.47-3.23-5-5.37-8.31-6.28a55.21,55.21,0,0,0-6.28-1.05l-14.51-2.22-28.78-4.41L159.59,216l2.15,16.45.74-.32-2.15.9c14.8-6.24,31.12-7.58,45.95-13.72a67.93,67.93,0,0,0,13.62-7.19c2.65-1.89,4.46-4.38,4.46-7.77s-1.82-5.85-4.46-7.77c-3.71-2.71-8.62-3.45-13.08-3.61-3.92-.14-7.86,0-11.79,0l-24.73,0c-4.7,0-9.21,4.14-9,9a9.16,9.16,0,0,0,9,9Z"/><g class="cls-2"><path class="cls-3" d="M151.76,333.7a24.28,24.28,0,0,0,.08,4.09,34.41,34.41,0,0,0,1.39,7.86,25.55,25.55,0,0,0,5.37,9.4,19.52,19.52,0,0,0,9,5.44,20.44,20.44,0,0,0,16-2.54,54.22,54.22,0,0,1,6.77-3.9l-3.59,1.51a21.74,21.74,0,0,1,5.25-1.38l-4,.54a21,21,0,0,1,5.19,0l-4-.53c2.85.42,5.45,1.6,8.24,2.16a20.75,20.75,0,0,0,10.47-.06,18.25,18.25,0,0,0,10.48-8.24c3.08-5.31,3.12-11.6,1.62-17.4a54.2,54.2,0,0,0-4.41-10.84q-1.29-2.57-2.8-5a70.47,70.47,0,0,0-8-11,22.51,22.51,0,0,0-6.6-5,24.2,24.2,0,0,0-5.4-2.07,25.18,25.18,0,0,0-6.12-.66,30.38,30.38,0,0,0-15.75,5.23,47.06,47.06,0,0,0-13.2,13.76,41,41,0,0,0-6,18.63c-.31,3.64,1.9,8.12,4.4,10.61a15.23,15.23,0,0,0,10.6,4.39c3.88-.17,7.91-1.44,10.61-4.39l2.35-3a15,15,0,0,0,2-7.57c0-.33.07-.67.11-1l-.54,4a25,25,0,0,1,1.71-6.05l-1.51,3.58a31.44,31.44,0,0,1,3.88-6.53l-2.34,3a30.16,30.16,0,0,1,5.23-5.24l-3,2.34a22.06,22.06,0,0,1,4.46-2.65l-3.58,1.51a14.85,14.85,0,0,1,3.68-1l-4,.53a11.79,11.79,0,0,1,2.52,0l-4-.53a8.72,8.72,0,0,1,2,.51l-3.59-1.51a10.27,10.27,0,0,1,2.06,1.18l-3-2.34a18.64,18.64,0,0,1,3.26,3.38l-2.35-3a67.89,67.89,0,0,1,8.47,14.4l-1.51-3.58a24.74,24.74,0,0,1,1.81,6.06l-.54-4a10,10,0,0,1,0,2.12l.53-4a5.53,5.53,0,0,1-.31,1.26l1.52-3.58a4.34,4.34,0,0,1-.53.9l2.35-3a3.78,3.78,0,0,1-.49.49l3-2.34a4.11,4.11,0,0,1-.73.43L200,327.4a3.55,3.55,0,0,1-.64.17l4-.53a5.23,5.23,0,0,1-1.25,0l4,.53a54.66,54.66,0,0,1-6-1.68,35.77,35.77,0,0,0-14-.9,30.5,30.5,0,0,0-6.57,1.39,48.6,48.6,0,0,0-6.88,3.07c-1.86,1.06-3.54,2.45-5.5,3.33l3.59-1.52a6.29,6.29,0,0,1-1.52.44l4-.54a5.24,5.24,0,0,1-1,0l4,.54a5.18,5.18,0,0,1-1.09-.3l3.58,1.51a5.53,5.53,0,0,1-1.1-.66l3,2.34a7,7,0,0,1-.92-1l2.34,3a9.84,9.84,0,0,1-1.12-2l1.51,3.58a16.94,16.94,0,0,1-1-4l.53,4a23.94,23.94,0,0,1-.14-4.56c.26-3.67-1.85-8.07-4.39-10.6a15.29,15.29,0,0,0-10.61-4.4c-3.88.18-7.9,1.45-10.6,4.4l-2.35,3A14.94,14.94,0,0,0,151.76,333.7Z"/></g><path class="cls-4" d="M75.5,365.5c-.66,1.88-2,4-8,8-7.3,4.82-11,7.23-15,6a8.92,8.92,0,0,1-5-13c1.39-2.29,3.36-2.58,13-5,10.7-2.69,13.55-3.66,15-2S75.86,364.46,75.5,365.5Z"/><path class="cls-4" d="M116.8,443.65a5.88,5.88,0,0,1-3.61,2.23c-9,2.56-10.19,19.67-18.39,21.34-4.72,1-10.71-3.41-11.51-7.85-.42-2.34.68-4.33,3.87-8.75,8.93-12.35,13.39-18.53,19.06-18.72a11.31,11.31,0,0,1,9.27,4.24C116.93,438.1,118.18,441.47,116.8,443.65Z"/><path class="cls-4" d="M208,450c2.84,1.83,2.61,5.37,3.37,13.1,1.6,16.36,4.58,20.29,1.52,23.42-2.6,2.66-7.55,2.68-10.81,1.2-7.36-3.33-7.41-15-7.45-21.83,0-5.68,0-11.74,4.23-14.87C201.38,449.25,205.4,448.35,208,450Z"/><path class="cls-4" d="M283.39,417.31c4.63-2.35,9.67.69,15.86,4.53,6.37,4,17.16,10.68,16.64,18.74-.2,3.16-2.16,6.7-4.86,7.36-4.22,1-6.46-5.87-15.2-12.07-9.62-6.82-16.8-5.47-17.73-10.05C277.43,422.55,280.45,418.79,283.39,417.31Z"/><path class="cls-4" d="M294.39,358.35c.88-4.3,11.77-5,12.58-5.08,6.42-.38,18.09,1,20.2,7.58a7.61,7.61,0,0,1-1.75,7.62c-1.29,1.16-3,1.51-10.93.33-14-2.07-16.9-4.39-18.49-6.43C295.15,361.3,294.08,359.89,294.39,358.35Z"/><path class="cls-5" d="M188.76,276.44c1.05,2.17,2.71,5.55,4.81,9.64,7,13.67,10.65,19.12,16.06,30.5,6.61,13.89,6.63,17.14,6.42,19.27-.66,6.92-5.19,15.38-12.84,17.67-12.29,3.66-26.78-10.4-25.73-19.42.4-3.43,3.22-7.62,7-8,3.49-.35,7,2.64,8,6s-.8,6.41-2.12,8.57c-.65,1.07-8.05,12.92-19.27,11.24-9-1.34-14.71-10.31-16.05-17.66-1.41-7.69,2.25-14.33,9.63-27.3,9.76-17.14,17.58-23.14,16.06-32.11-.15-.87-1-5.2-1.61-11.24-.85-8.05-.34-9.1,0-9.64,2.44-3.84,8.58-1.14,19.27-3.21,12.19-2.36,16.43-7.15,19.27-4.82,3.45,2.84-2.27,10.4,0,22.48,1.13,6,3.67,10.08,6.42,14.45,8,12.73,15.6,15.54,24.09,24.09,14.26,14.38,18.24,32.1,19.27,36.93a75.36,75.36,0,0,1-3.21,41.75c-1.74,4.47-10.1,24.63-32.12,36.93-19.38,10.83-37.83,9.13-49.78,8-14.05-1.3-37.58-3.47-56.2-22.48-18.28-18.67-24.29-45.9-19.26-69.05.94-4.33,8-36.3,30.5-46.56,6.31-2.88,14.71-4.54,20.88-12.85a37.64,37.64,0,0,0,6.42-16c.58-4.46-.14-6.07,0-17.67.12-9.48.82-10.55,1.61-11.24,3-2.65,7.39.94,20.87,3.22,7,1.18,5.14-.16,17.66,1.6,7.52,1.05,11.1,2.06,12.85,0,.94-1.1.64-4,0-9.63-.54-4.82-.83-7.24-1.61-8-2-2-5.33-1.07-17.66,1.6-16.72,3.62-11.39,2-16.06,3.22-6.8,1.74-11.45,3.44-12.84,1.6-.53-.71.06-1.08,0-4.82-.06-3.36-.55-4.3,0-6.42a10.56,10.56,0,0,1,1.6-3.21c2.69-3.5,10.4-2.64,17.67-1.61,15.41,2.21,22.37,4.33,24.08,1.61.48-.75,0-1,0-6.42s.5-5.64,0-6.43c-2.08-3.31-8.94-.31-22.48-1.6-3-.29-4.15-.52-7.32-1-15.72-2.26-51.57-7.42-76.17-3.84-2.13.31-7.5,1.17-9.64-1.6-2.47-3.21.76-9.47,1.61-11.24,8.13-17.13-3.45-45.71-6.43-80.29A206.62,206.62,0,0,1,94,53.25"/></svg>