<svg id="Layer_1" data-name="Layer 1" xmlns="http://www.w3.org/2000/svg" viewBox="0 0 500 500"><defs><style>.cls-1{fill:none;stroke:#75d2fc;stroke-linecap:round;stroke-linejoin:round;stroke-width:5px;}</style></defs><path class="cls-1" d="M187.78,276.84c1.05,2.17,2.71,5.54,4.81,9.64,7,13.67,10.64,19.12,16.06,30.5,6.61,13.89,6.63,17.14,6.42,19.27-.66,6.92-5.19,15.38-12.84,17.67-12.29,3.66-26.78-10.4-25.73-19.42.4-3.43,3.22-7.62,7-8,3.49-.35,7,2.64,8,6s-.8,6.41-2.12,8.57c-.65,1.07-8,12.92-19.27,11.24-9-1.34-14.71-10.32-16.05-17.66-1.41-7.69,2.25-14.33,9.63-27.3,9.76-17.14,17.58-23.14,16.06-32.11-.15-.87-1-5.2-1.61-11.24-.86-8.05-.34-9.1,0-9.64,2.44-3.84,8.58-1.14,19.27-3.21,12.19-2.36,16.43-7.15,19.27-4.82,3.45,2.84-2.27,10.4,0,22.48,1.13,6,3.67,10.07,6.42,14.45,8,12.73,15.6,15.54,24.09,24.09,14.26,14.38,18.24,32.1,19.27,36.93A75.23,75.23,0,0,1,263.24,386,73.91,73.91,0,0,1,231.13,423c-19.39,10.83-37.83,9.13-49.78,8-14-1.3-37.58-3.47-56.2-22.48-18.28-18.67-24.3-45.9-19.26-69.05.94-4.33,8-36.3,30.5-46.56,6.31-2.88,14.71-4.54,20.88-12.85A37.64,37.64,0,0,0,163.69,264c.58-4.46-.15-6.07,0-17.67.12-9.48.82-10.55,1.61-11.24,3-2.65,7.39.94,20.87,3.21,7,1.19,5.14-.15,17.66,1.61,7.52,1.05,11.1,2.06,12.85,0,.93-1.1.64-4,0-9.63-.54-4.82-.83-7.24-1.61-8-2-2-5.33-1.07-17.66,1.6-16.72,3.62-11.39,2-16.06,3.21-6.8,1.75-11.46,3.45-12.84,1.61-.54-.71.06-1.08,0-4.82-.06-3.36-.55-4.3,0-6.42a10.56,10.56,0,0,1,1.6-3.21c2.69-3.5,10.4-2.65,17.67-1.61,15.41,2.21,22.37,4.33,24.08,1.61.48-.75,0-1,0-6.42,0-5.54.5-5.64,0-6.43-2.08-3.31-8.94-.31-22.48-1.6-3-.29-4.15-.52-7.32-1-15.72-2.26-51.57-7.42-76.17-3.84-2.13.31-7.5,1.17-9.64-1.61-2.47-3.2.76-9.46,1.61-11.24C106,165,94.4,136.4,91.43,101.82A206.62,206.62,0,0,1,93,53.65"/></svg>